<?xml version="1.0" encoding="UTF-8"?>
<svg version="1.1" xmlns="http://www.w3.org/2000/svg" width="204" height="205">
<path d="M0 0 C1.27230469 1.06541016 1.27230469 1.06541016 2.5703125 2.15234375 C22.99987749 19.92669005 35.01556405 42.57264755 37.21142578 69.60253906 C38.77282273 99.31944871 27.74297384 124.14352485 8.57177734 146.17358398 C7.16366012 147.80982582 5.81228464 149.4780048 4.46484375 151.1640625 C-7.16912566 164.54958039 -24.89832786 173.99924518 -42 178 C-43.0509082 178.26055176 -43.0509082 178.26055176 -44.12304688 178.52636719 C-60.73344665 182.31127144 -79.92850883 181.72580318 -96 176 C-96.62084473 175.79101074 -97.24168945 175.58202148 -97.88134766 175.36669922 C-122.5310526 166.99545625 -141.50045536 149.13343534 -153.46875 126.18359375 C-164.91315512 102.21314766 -165.50722998 76.55255436 -157.875 51.4375 C-153.26905945 38.46088307 -146.15528866 27.2539233 -137 17 C-136.26910156 16.14921875 -135.53820312 15.2984375 -134.78515625 14.421875 C-101.30112182 -23.94647376 -40.63169083 -34.20591225 0 0 Z M-52 37 C-55.2430854 43.78468423 -57.0552194 50.9455129 -59.01171875 58.18359375 C-59.38841851 59.56694231 -59.76527777 60.95024744 -60.14228821 62.33351135 C-60.92835133 65.22307215 -61.71020578 68.11373424 -62.48950195 71.00512695 C-63.48445379 74.6940365 -64.49333613 78.37897558 -65.50586224 82.06309414 C-66.28749405 84.91554231 -67.05986694 87.77043837 -67.82972145 90.62608528 C-68.19765535 91.98520697 -68.56881099 93.34346106 -68.9433651 94.70077324 C-71.73908893 104.70773097 -71.73908893 104.70773097 -72 115 C-70.94945399 116.24660324 -70.94945399 116.24660324 -68.625 116.375 C-67.325625 116.189375 -67.325625 116.189375 -66 116 C-63.35351691 112.36960307 -62.1660907 108.69692908 -60.99121094 104.39306641 C-60.81360229 103.75009109 -60.63599365 103.10711578 -60.45300293 102.44465637 C-59.87207269 100.33239893 -59.30262527 98.21726366 -58.734375 96.1015625 C-58.33298665 94.62324439 -57.93130973 93.1450046 -57.52935791 91.6668396 C-56.69029745 88.57326253 -55.85740044 85.47810189 -55.02832031 82.38183594 C-53.96783247 78.42482968 -52.88810566 74.47336364 -51.80315781 70.52300453 C-50.96856022 67.47305812 -50.14635647 64.41987114 -49.32758331 61.36564255 C-48.93475237 59.90772509 -48.53764653 58.45095221 -48.13610077 56.99541092 C-47.5748727 54.95540328 -47.03106383 52.91147512 -46.49121094 50.86572266 C-46.17827087 49.70610016 -45.86533081 48.54647766 -45.54290771 47.35171509 C-44.94127555 43.63745655 -45.28967117 40.6772435 -46 37 C-47.98 37 -49.96 37 -52 37 Z M-97.1875 42.4375 C-98.1526639 43.36955845 -99.12017072 44.29919604 -100.08984375 45.2265625 C-100.57565918 45.69610352 -101.06147461 46.16564453 -101.56201172 46.64941406 C-103.6980539 48.6556255 -105.96444257 50.47996662 -108.25 52.3125 C-113.5388598 56.58016785 -118.67099724 61.01083943 -123.78613281 65.48364258 C-124.39038086 66.01111084 -124.99462891 66.5385791 -125.6171875 67.08203125 C-126.47908691 67.8412085 -126.47908691 67.8412085 -127.35839844 68.61572266 C-129 70 -129 70 -131.9453125 72.07421875 C-134.17243961 73.83414997 -134.17243961 73.83414997 -134.69921875 76.3984375 C-133.64226163 80.33102655 -130.88641245 82.19611577 -127.8125 84.625 C-127.17900635 85.14570068 -126.5455127 85.66640137 -125.89282227 86.20288086 C-124.57726317 87.28415558 -123.25712562 88.35988229 -121.93261719 89.43017578 C-119.06185716 91.76203366 -116.25225471 94.16365487 -113.4375 96.5625 C-112.37675736 97.45887237 -111.31555747 98.35470392 -110.25390625 99.25 C-107.96529266 101.1819556 -105.68230099 103.12033691 -103.40234375 105.0625 C-102.81203369 105.56450928 -102.22172363 106.06651855 -101.61352539 106.58374023 C-100.482752 107.54555662 -99.35297652 108.50854787 -98.22436523 109.47290039 C-92.83950636 114.21172004 -92.83950636 114.21172004 -86 115 C-84.75944786 113.95748964 -84.75944786 113.95748964 -84.65234375 111.6875 C-84.74943166 108.87559685 -84.74943166 108.87559685 -86.87890625 107 C-88.20728516 106.01 -88.20728516 106.01 -89.5625 105 C-90.56539062 104.22527344 -91.56828125 103.45054688 -92.6015625 102.65234375 C-93.14973633 102.23065918 -93.69791016 101.80897461 -94.26269531 101.37451172 C-97.41496341 98.88051658 -100.41627635 96.21236329 -103.4375 93.5625 C-109.87945169 87.94371405 -116.40610572 82.4396558 -123 77 C-115.81245847 69.73404893 -108.31899901 62.80693101 -100.375 56.375 C-98.58285751 54.91725144 -96.79119366 53.45891426 -95 52 C-94.02804688 51.21367188 -93.05609375 50.42734375 -92.0546875 49.6171875 C-91.12914062 48.83601563 -90.20359375 48.05484375 -89.25 47.25 C-87.98929688 46.20585938 -87.98929688 46.20585938 -86.703125 45.140625 C-84.67349134 43.0922928 -84.67349134 43.0922928 -85.234375 40.234375 C-85.48703125 39.49703125 -85.7396875 38.7596875 -86 38 C-91.44292283 37.43584304 -93.36160261 38.63475479 -97.1875 42.4375 Z M-34 38 C-35.13210475 40.13079138 -35.13210475 40.13079138 -35 43 C-31.23619973 48.35975798 -25.22760579 52.32933993 -20.1796875 56.3984375 C-16.4308312 59.44123118 -12.77606647 62.59104156 -9.125 65.75 C-8.49464844 66.29285645 -7.86429688 66.83571289 -7.21484375 67.39501953 C-3.66652021 70.47332261 -0.27791397 73.63484117 3 77 C-3.9413198 83.52197138 -10.92700708 89.86657805 -18.359375 95.83203125 C-21.95567129 98.78461178 -25.38368991 101.9062586 -28.80859375 105.0546875 C-30.80317928 106.82528214 -32.84128295 108.43628241 -35 110 C-34.67 111.65 -34.34 113.3 -34 115 C-31.82624416 115.97873519 -31.82624416 115.97873519 -29 116 C-26.60575263 114.3518527 -24.66603611 112.77850747 -22.5625 110.8125 C-21.31286417 109.69230195 -20.06285387 108.57252152 -18.8125 107.453125 C-17.86117187 106.5878418 -17.86117187 106.5878418 -16.890625 105.70507812 C-14.55595153 103.59953067 -12.17301557 101.55636669 -9.77758789 99.52050781 C-8.0515142 98.0531609 -6.33608102 96.57402936 -4.62109375 95.09375 C-2.03687135 92.87113257 0.58041099 90.69406823 3.21484375 88.53125 C4.25620483 87.66294556 4.25620483 87.66294556 5.31860352 86.77709961 C6.66224475 85.65678709 8.015305 84.54765016 9.37866211 83.45141602 C12.88500036 80.51821004 12.88500036 80.51821004 14.796875 76.46875 C13.58206324 72.70521552 10.87699781 70.80567264 7.875 68.4375 C6.58040979 67.37408661 5.28614786 66.31027345 3.9921875 65.24609375 C3.32670898 64.70710449 2.66123047 64.16811523 1.97558594 63.61279297 C-0.47908294 61.60889497 -2.88367698 59.55161375 -5.28271484 57.48168945 C-6.42820713 56.49334816 -7.57698642 55.50880385 -8.72900391 54.52807617 C-11.78930155 51.92257157 -14.80648324 49.28107016 -17.78125 46.578125 C-18.40386719 46.02125 -19.02648437 45.464375 -19.66796875 44.890625 C-20.85849562 43.82448154 -22.03888847 42.74687301 -23.20703125 41.65625 C-26.01699399 39.16148595 -27.61410948 38.03717294 -31.40625 37.671875 C-32.2621875 37.78015625 -33.118125 37.8884375 -34 38 Z " fill="#01B3A5" transform="translate(165,22)"/>
<path d="M0 0 C1.65 0 3.3 0 5 0 C-6.78922667 12.96814934 -23.29875664 19.25731173 -40 23 C-41.15060913 23.2626062 -41.15060913 23.2626062 -42.32446289 23.53051758 C-57.42671371 26.18054297 -74.54364399 25.0669891 -89 20 C-89.90234375 19.69191406 -90.8046875 19.38382813 -91.734375 19.06640625 C-93.50824673 18.42720075 -95.25951537 17.72520193 -97 17 C-96.34 16.34 -95.68 15.68 -95 15 C-93.989375 15.45375 -92.97875 15.9075 -91.9375 16.375 C-84.8004846 19.3868205 -78.69328109 20.2786299 -71 20 C-70.67 20.66 -70.34 21.32 -70 22 C-67.64400765 22.46751788 -67.64400765 22.46751788 -64.9375 22.625 C-64.01839844 22.69976562 -63.09929687 22.77453125 -62.15234375 22.8515625 C-61.44207031 22.90054688 -60.73179688 22.94953125 -60 23 C-60 22.34 -60 21.68 -60 21 C-58.33388095 20.957279 -56.66617115 20.95936168 -55 21 C-54.67 21.33 -54.34 21.66 -54 22 C-52.65252916 22.23075082 -51.29622435 22.41153063 -49.9375 22.5625 C-48.638125 22.706875 -47.33875 22.85125 -46 23 C-46 22.34 -46 21.68 -46 21 C-45.36191406 20.87882812 -44.72382812 20.75765625 -44.06640625 20.6328125 C-43.24011719 20.46523437 -42.41382813 20.29765625 -41.5625 20.125 C-40.73878906 19.96257812 -39.91507813 19.80015625 -39.06640625 19.6328125 C-38.38449219 19.42398438 -37.70257813 19.21515625 -37 19 C-36.67 18.34 -36.34 17.68 -36 17 C-36.99 16.67 -37.98 16.34 -39 16 C-37.3603125 15.814375 -37.3603125 15.814375 -35.6875 15.625 C-31.92618198 15.24535199 -31.92618198 15.24535199 -29 13 C-26.95076038 12.3328057 -24.88579411 11.71320302 -22.8125 11.125 C-13.66635089 8.44015221 -13.66635089 8.44015221 -6 3 C-4.01178687 2.60235737 -2.01055661 2.26224651 0 2 C0 1.34 0 0.68 0 0 Z " fill="#08A3A9" transform="translate(158,178)"/>
<path d="M0 0 C1.0546875 1.796875 1.0546875 1.796875 2 4 C1.125 7.25 1.125 7.25 0 10 C-0.66 10 -1.32 10 -2 10 C-2.12375 11.19625 -2.2475 12.3925 -2.375 13.625 C-2.82325054 17.27596813 -3.70446837 20.54524899 -5 24 C-5.66 24 -6.32 24 -7 24 C-7 24.66 -7 25.32 -7 26 C-7.66 26 -8.32 26 -9 26 C-9 29.96 -9 33.92 -9 38 C-10.485 38.495 -10.485 38.495 -12 39 C-11.94618059 25.27605107 -7.2825647 11.56642629 0 0 Z " fill="#169EA8" transform="translate(15,57)"/>
<path d="M0 0 C1.175625 0.45375 2.35125 0.9075 3.5625 1.375 C10.96133346 4.10906981 17.12060174 5.28537056 25 5 C25.33 5.66 25.66 6.32 26 7 C28.35599235 7.46751788 28.35599235 7.46751788 31.0625 7.625 C31.98160156 7.69976562 32.90070313 7.77453125 33.84765625 7.8515625 C34.55792969 7.90054688 35.26820312 7.94953125 36 8 C36 7.34 36 6.68 36 6 C37.66611905 5.957279 39.33382885 5.95936168 41 6 C41.495 6.495 41.495 6.495 42 7 C43.34747084 7.23075082 44.70377565 7.41153063 46.0625 7.5625 C47.361875 7.706875 48.66125 7.85125 50 8 C50 7.34 50 6.68 50 6 C53.63 6 57.26 6 61 6 C61 6.33 61 6.66 61 7 C53.10441966 8.96092007 45.49135849 9.38545639 37.375 9.375 C36.14040039 9.37411377 34.90580078 9.37322754 33.63378906 9.37231445 C24.1682161 9.24992551 15.93821551 8.13286699 7 5 C6.09765625 4.69191406 5.1953125 4.38382813 4.265625 4.06640625 C2.49175327 3.42720075 0.74048463 2.72520193 -1 2 C-0.67 1.34 -0.34 0.68 0 0 Z " fill="#1D9CA1" transform="translate(62,193)"/>
<path d="M0 0 C1.09828125 -0.00773438 2.1965625 -0.01546875 3.328125 -0.0234375 C10.42463151 -0.00662113 17.06953695 0.72571479 24 2.25 C24 2.58 24 2.91 24 3.25 C22.06257659 3.27703381 20.12504521 3.29641125 18.1875 3.3125 C17.10855469 3.32410156 16.02960938 3.33570313 14.91796875 3.34765625 C12 3.25 12 3.25 9 2.25 C7.38486949 2.15721665 5.76622945 2.11931497 4.1484375 2.1171875 C3.21515625 2.11589844 2.281875 2.11460937 1.3203125 2.11328125 C-0.13761719 2.11908203 -0.13761719 2.11908203 -1.625 2.125 C-2.6046875 2.12113281 -3.584375 2.11726562 -4.59375 2.11328125 C-5.98980469 2.11521484 -5.98980469 2.11521484 -7.4140625 2.1171875 C-8.69724365 2.11887939 -8.69724365 2.11887939 -10.00634766 2.12060547 C-11.99975886 2.0298172 -11.99975886 2.0298172 -13 3.25 C-14.51928038 3.32179964 -16.04167482 3.33392007 -17.5625 3.3125 C-18.38878906 3.30347656 -19.21507813 3.29445313 -20.06640625 3.28515625 C-20.70449219 3.27355469 -21.34257813 3.26195312 -22 3.25 C-22 3.91 -22 4.57 -22 5.25 C-23.58086048 5.61504603 -25.16483907 5.96660506 -26.75 6.3125 C-27.63171875 6.50972656 -28.5134375 6.70695313 -29.421875 6.91015625 C-31.98679028 7.24825872 -33.57091639 7.06158635 -36 6.25 C-34.23284069 5.61468618 -32.46097982 4.99245041 -30.6875 4.375 C-29.70136719 4.02695313 -28.71523437 3.67890625 -27.69921875 3.3203125 C-18.45330568 0.64514864 -9.59851061 -0.06759515 0 0 Z " fill="#24A79C" transform="translate(105,1.75)"/>
<path d="M0 0 C0.66 0 1.32 0 2 0 C2.556875 1.6396875 2.556875 1.6396875 3.125 3.3125 C4.4798799 6.54588489 4.97658038 6.98576455 8.1875 8.9375 C9.115625 9.288125 10.04375 9.63875 11 10 C10.01 10.495 10.01 10.495 9 11 C9 12.98 9 14.96 9 17 C11.31 17.66 13.62 18.32 16 19 C16.625 21.3125 16.625 21.3125 17 24 C16.34 24.99 15.68 25.98 15 27 C10.44979726 21.75304746 6.83165327 16.22815574 3.5625 10.125 C3.03172852 9.14358032 3.03172852 9.14358032 2.49023438 8.14233398 C0.96864262 5.23511449 0 3.32837606 0 0 Z " fill="#10A0A7" transform="translate(9,140)"/>
<path d="M0 0 C1.34173403 0.92543709 2.67320159 1.86577405 4 2.8125 C5.11375 3.59560547 5.11375 3.59560547 6.25 4.39453125 C7.11625 5.18923828 7.11625 5.18923828 8 6 C8 6.99 8 7.98 8 9 C6 10.6875 6 10.6875 4 12 C0.58712264 10.29356132 0.15558675 6.46676025 -1 3 C-0.67 2.01 -0.34 1.02 0 0 Z " fill="#10AC9E" transform="translate(160,91)"/>
<path d="M0 0 C1.125 1.625 1.125 1.625 2 4 C1.125 7.25 1.125 7.25 0 10 C-0.66 10 -1.32 10 -2 10 C-2.12375 11.258125 -2.2475 12.51625 -2.375 13.8125 C-2.69868059 17.10325263 -3.06604999 18.09907498 -5 21 C-5.33 19.02 -5.66 17.04 -6 15 C-5.34 15 -4.68 15 -4 15 C-4.0825 13.824375 -4.165 12.64875 -4.25 11.4375 C-4.28424585 6.63451989 -2.62933968 3.94400953 0 0 Z " fill="#02A6A6" transform="translate(15,57)"/>
<path d="M0 0 C1.65 0 3.3 0 5 0 C0.85989729 4.54075781 -3.82390176 7.71842138 -9 11 C-9.33 10.34 -9.66 9.68 -10 9 C-9.34 8.67 -8.68 8.34 -8 8 C-7.34444881 5.47266765 -7.34444881 5.47266765 -7 3 C-3.535 2.505 -3.535 2.505 0 2 C0 1.34 0 0.68 0 0 Z " fill="#0DA4A3" transform="translate(158,178)"/>
<path d="M0 0 C0.33 0 0.66 0 1 0 C1.04241723 2.33294775 1.04092937 4.66702567 1 7 C0.67 7.33 0.34 7.66 0 8 C-0.23481693 10.18292774 -0.41363323 12.37203174 -0.5625 14.5625 C-0.68818359 16.35880859 -0.68818359 16.35880859 -0.81640625 18.19140625 C-0.87699219 19.11824219 -0.93757813 20.04507813 -1 21 C-2.98 21.66 -4.96 22.32 -7 23 C-6.66226563 21.92621094 -6.32453125 20.85242188 -5.9765625 19.74609375 C-5.52599518 18.30991042 -5.07547697 16.87371168 -4.625 15.4375 C-4.40328125 14.73302734 -4.1815625 14.02855469 -3.953125 13.30273438 C-2.56894857 8.88558313 -1.25310767 4.45614457 0 0 Z " fill="#1BA89E" transform="translate(106,115)"/>
<path d="M0 0 C0.33 0.66 0.66 1.32 1 2 C-1.40983607 6.70491803 -1.40983607 6.70491803 -4 8 C-5.01765927 9.99107248 -6.01577854 11.99218823 -7 14 C-8.5625 16.375 -8.5625 16.375 -10 18 C-10.66 18 -11.32 18 -12 18 C-10.5703053 13.91196673 -8.57586645 10.78329064 -6 7.3125 C-5.29875 6.35988281 -4.5975 5.40726563 -3.875 4.42578125 C-2 2 -2 2 0 0 Z " fill="#19A29D" transform="translate(28,39)"/>
<path d="M0 0 C0.99 0.33 1.98 0.66 3 1 C1.42507856 2.96564623 -0.15921132 4.9222622 -1.75 6.875 C-2.1934375 7.43058594 -2.636875 7.98617187 -3.09375 8.55859375 C-5.47278845 11.4624201 -7.43210402 13.68287952 -11 15 C-10.6875 13.0625 -10.6875 13.0625 -10 11 C-9.01 10.67 -8.02 10.34 -7 10 C-5.78130071 7.49552484 -5.78130071 7.49552484 -5 5 C-4.34 5 -3.68 5 -3 5 C-2.690625 4.360625 -2.38125 3.72125 -2.0625 3.0625 C-1 1 -1 1 0 0 Z " fill="#18A49E" transform="translate(174,163)"/>
<path d="M0 0 C0.99 0 1.98 0 3 0 C3.33 0.66 3.66 1.32 4 2 C4.99 2.33 5.98 2.66 7 3 C7 3.66 7 4.32 7 5 C7.99 4.34 8.98 3.68 10 3 C10.99 3 11.98 3 13 3 C13 3.66 13 4.32 13 5 C12.34 5 11.68 5 11 5 C11 5.99 11 6.98 11 8 C11.99 8 12.98 8 14 8 C14.33 8.99 14.66 9.98 15 11 C10.92584833 9.59790456 8.01720177 7.65552322 4.6875 4.9375 C3.80449219 4.22464844 2.92148437 3.51179687 2.01171875 2.77734375 C1.34785156 2.19082031 0.68398438 1.60429687 0 1 C0 0.67 0 0.34 0 0 Z " fill="#1D9DA2" transform="translate(34,177)"/>
<path d="M0 0 C0.226875 1.03125 0.45375 2.0625 0.6875 3.125 C1.86471856 7.34408258 4.04838971 9.81536784 7 13 C3.52224821 11.48446596 1.0442016 9.4226544 -1.75 6.875 C-2.54921875 6.15054688 -3.3484375 5.42609375 -4.171875 4.6796875 C-5.07679687 3.84824219 -5.07679687 3.84824219 -6 3 C-2.25 0 -2.25 0 0 0 Z " fill="#14AB9C" transform="translate(66,112)"/>
<path d="M0 0 C0.94875 0.350625 1.8975 0.70125 2.875 1.0625 C0.29715154 3.71002004 -2.04148098 6.00682065 -5.125 8.0625 C-5.125 5.4225 -5.125 2.7825 -5.125 0.0625 C-3.125 -0.9375 -3.125 -0.9375 0 0 Z " fill="#0DADA1" transform="translate(68.125,60.9375)"/>
<path d="M0 0 C0.66 0 1.32 0 2 0 C0.65070536 3.83663072 -1.07751025 6.65172569 -3.625 9.8125 C-4.25664062 10.60269531 -4.88828125 11.39289063 -5.5390625 12.20703125 C-6.02117187 12.79871094 -6.50328125 13.39039063 -7 14 C-7.33 13.34 -7.66 12.68 -8 12 C-7.34 11.01 -6.68 10.02 -6 9 C-5.61500109 7.34450469 -5.27206865 5.6777567 -5 4 C-3.35 3.67 -1.7 3.34 0 3 C0 2.01 0 1.02 0 0 Z " fill="#1CA99D" transform="translate(185,149)"/>
<path d="M0 0 C0.66 0 1.32 0 2 0 C2.45375 1.134375 2.9075 2.26875 3.375 3.4375 C4.57095806 7.04721692 4.57095806 7.04721692 7 8 C7 10.31 7 12.62 7 15 C3.49221789 10.79066147 0 5.5744558 0 0 Z " fill="#1D9C9C" transform="translate(9,140)"/>
<path d="M0 0 C3.98381075 2.16264012 6.88983545 4.71211176 10 8 C7.03 7.67 4.06 7.34 1 7 C1 6.34 1 5.68 1 5 C0.34 4.34 -0.32 3.68 -1 3 C-0.67 2.01 -0.34 1.02 0 0 Z " fill="#11AB9C" transform="translate(38,107)"/>
<path d="M0 0 C0.33 0 0.66 0 1 0 C1.10855028 4.45056166 0.63986714 8.6009134 0 13 C-0.03545297 14.66628955 -0.05048188 16.33409803 0 18 C-0.99 18.33 -1.98 18.66 -3 19 C-2.58955515 12.42208127 -2.13391403 6.25948114 0 0 Z " fill="#1C9BA0" transform="translate(6,77)"/>
<path d="M0 0 C0 0.66 0 1.32 0 2 C-0.99 2.495 -0.99 2.495 -2 3 C-1.67 4.98 -1.34 6.96 -1 9 C-2.31611677 8.04663979 -3.62778961 7.08714226 -4.9375 6.125 C-5.66839844 5.59132813 -6.39929688 5.05765625 -7.15234375 4.5078125 C-9 3 -9 3 -10 1 C-9.05125 1.020625 -8.1025 1.04125 -7.125 1.0625 C-4.31337204 1.00626744 -2.6726858 0 0 0 Z " fill="#13ACA1" transform="translate(178,86)"/>
<path d="M0 0 C0 0.66 0 1.32 0 2 C-0.66 2 -1.32 2 -2 2 C-2 2.66 -2 3.32 -2 4 C-3.0725 4.433125 -4.145 4.86625 -5.25 5.3125 C-8.16272646 6.55321513 -10.56036166 7.95070379 -13 10 C-13.66 9.67 -14.32 9.34 -15 9 C-3.26213592 -0 -3.26213592 -0 0 0 Z " fill="#1EA899" transform="translate(60,13)"/>
<path d="M0 0 C1.31611677 0.95336021 2.62778961 1.91285774 3.9375 2.875 C4.66839844 3.40867187 5.39929688 3.94234375 6.15234375 4.4921875 C8 6 8 6 9 8 C5.7 7.67 2.4 7.34 -1 7 C-0.67 4.69 -0.34 2.38 0 0 Z " fill="#18A79B" transform="translate(151,83)"/>
<path d="M0 0 C0 3 0 3 -1.96875 5.04296875 C-2.8040625 5.75066406 -3.639375 6.45835937 -4.5 7.1875 C-5.3353125 7.90292969 -6.170625 8.61835938 -7.03125 9.35546875 C-7.6809375 9.89816406 -8.330625 10.44085938 -9 11 C-9.66 10.67 -10.32 10.34 -11 10 C-5.555 5.05 -5.555 5.05 0 0 Z " fill="#19A89A" transform="translate(151,124)"/>
<path d="M0 0 C0.66 0.66 1.32 1.32 2 2 C1.01 2.33 0.02 2.66 -1 3 C-0.34 4.32 0.32 5.64 1 7 C0.01 6.67 -0.98 6.34 -2 6 C-2 5.34 -2 4.68 -2 4 C-2.99 4 -3.98 4 -5 4 C-5 3.01 -5 2.02 -5 1 C-2.625 0.375 -2.625 0.375 0 0 Z " fill="#03A5A7" transform="translate(50,181)"/>
<path d="M0 0 C0.33 0.66 0.66 1.32 1 2 C-1.19924069 5.35673579 -3.38269598 7.23772368 -7 9 C-7.66 8.67 -8.32 8.34 -9 8 C-6.03 5.36 -3.06 2.72 0 0 Z " fill="#18A69B" transform="translate(163,114)"/>
<path d="M0 0 C0.66 1.32 1.32 2.64 2 4 C1.01 5.485 1.01 5.485 0 7 C-0.66 7 -1.32 7 -2 7 C-2 7.66 -2 8.32 -2 9 C-2.66 9 -3.32 9 -4 9 C-2.94124926 5.59687262 -1.99097846 2.98646769 0 0 Z " fill="#1D9EA0" transform="translate(15,57)"/>
<path d="M0 0 C1.31611677 0.95336021 2.62778961 1.91285774 3.9375 2.875 C4.66839844 3.40867188 5.39929688 3.94234375 6.15234375 4.4921875 C8 6 8 6 9 8 C6.69 7.34 4.38 6.68 2 6 C2 5.34 2 4.68 2 4 C1.34 3.67 0.68 3.34 0 3 C0 2.01 0 1.02 0 0 Z " fill="#1CA59C" transform="translate(60,125)"/>
<path d="M0 0 C5.875 3.75 5.875 3.75 7 6 C5.02 6 3.04 6 1 6 C0.67 4.02 0.34 2.04 0 0 Z " fill="#18A7A1" transform="translate(50,117)"/>
<path d="M0 0 C0.33 0 0.66 0 1 0 C1.33 2.64 1.66 5.28 2 8 C1.01 8.33 0.02 8.66 -1 9 C-1.33 9.66 -1.66 10.32 -2 11 C-1.125 3.375 -1.125 3.375 0 0 Z " fill="#1DA99B" transform="translate(110,100)"/>
<path d="M0 0 C0.66 0.33 1.32 0.66 2 1 C1.34 1.66 0.68 2.32 0 3 C0 3.99 0 4.98 0 6 C0.66 6.33 1.32 6.66 2 7 C2 7.66 2 8.32 2 9 C-1.16115776 7.63016497 -1.9927092 7.0109362 -4 4 C-2.68 2.68 -1.36 1.36 0 0 Z " fill="#21A599" transform="translate(45,94)"/>
<path d="M0 0 C1.65 0 3.3 0 5 0 C2.42215154 2.64752004 0.08351902 4.94432065 -3 7 C-3 5.68 -3 4.36 -3 3 C-2.01 2.34 -1.02 1.68 0 1 C0 0.67 0 0.34 0 0 Z " fill="#18A999" transform="translate(38,86)"/>
<path d="M0 0 C3.26460973 1.80412643 4.88929795 2.83394693 7 6 C6.01 6 5.02 6 4 6 C4 5.34 4 4.68 4 4 C3.01 4.33 2.02 4.66 1 5 C1 4.34 1 3.68 1 3 C0.34 3 -0.32 3 -1 3 C-0.67 2.01 -0.34 1.02 0 0 Z " fill="#14AB9A" transform="translate(143,77)"/>
<path d="M0 0 C1.60080151 4.00200378 0.29279692 7.04556236 -1 11 C-1.33 11 -1.66 11 -2 11 C-2.25 3.375 -2.25 3.375 0 0 Z " fill="#21A59F" transform="translate(98,107)"/>
<path d="M0 0 C1.65 0 3.3 0 5 0 C5.33 0.99 5.66 1.98 6 3 C3.69 3 1.38 3 -1 3 C-0.67 2.01 -0.34 1.02 0 0 Z " fill="#0CA1AE" transform="translate(98,199)"/>
<path d="M0 0 C1.32 0.66 2.64 1.32 4 2 C4 2.66 4 3.32 4 4 C2.02 4 0.04 4 -2 4 C-2.33 3.34 -2.66 2.68 -3 2 C-2.01 1.34 -1.02 0.68 0 0 Z " fill="#04A4AC" transform="translate(90,197)"/>
<path d="M0 0 C1.32 0.33 2.64 0.66 4 1 C1.36 2.65 -1.28 4.3 -4 6 C-4.33 5.34 -4.66 4.68 -5 4 C-2.75 1.9375 -2.75 1.9375 0 0 Z " fill="#249B9F" transform="translate(153,183)"/>
<path d="M0 0 C0.33 1.32 0.66 2.64 1 4 C-0.65 5.32 -2.3 6.64 -4 8 C-4 4.09161134 -2.49432124 2.88405893 0 0 Z " fill="#0AAE9D" transform="translate(49,91)"/>
<path d="M0 0 C0.33 0 0.66 0 1 0 C0.96744792 1.98567708 0.93489583 3.97135417 0.90234375 5.95703125 C0.91736783 8.20305461 0.91736783 8.20305461 2 11 C1.01 10.67 0.02 10.34 -1 10 C-0.67 6.7 -0.34 3.4 0 0 Z " fill="#16ABA2" transform="translate(118,70)"/>
<path d="M0 0 C1.7015625 0.495 1.7015625 0.495 3.4375 1 C6.54376639 2.04504273 6.54376639 2.04504273 8 2 C8 3.65 8 5.3 8 7 C6.66382648 6.02471263 5.3311249 5.04466681 4 4.0625 C3.2575 3.51722656 2.515 2.97195312 1.75 2.41015625 C1.1725 1.94480469 0.595 1.47945313 0 1 C0 0.67 0 0.34 0 0 Z " fill="#1CA79D" transform="translate(147,69)"/>
<path d="M0 0 C1.98 0 3.96 0 6 0 C2.79663178 2.83374881 0.21912747 3.5205537 -4 4 C-2.68 3.34 -1.36 2.68 0 2 C0 1.34 0 0.68 0 0 Z " fill="#209AA1" transform="translate(134,193)"/>
<path d="M0 0 C0.66 0 1.32 0 2 0 C1.34 2.97 0.68 5.94 0 9 C-2 5 -2 5 -1.125 2.25 C-0.75375 1.5075 -0.3825 0.765 0 0 Z " fill="#1AA69B" transform="translate(105,79)"/>
<path d="M0 0 C1.98 1.65 3.96 3.3 6 5 C5.01 5.66 4.02 6.32 3 7 C0 2.25 0 2.25 0 0 Z " fill="#17AC9C" transform="translate(171,28)"/>
</svg>
